<?xml version="1.0" encoding="UTF-8"?>
<!--
Font Awesome Free 5.4.2 by @fontawesome - https://fontawesome.com
License - https://fontawesome.com/license/free (Icons: CC BY 4.0, Fonts: SIL OFL 1.1, Code: MIT License)
-->
<svg xmlns="http://www.w3.org/2000/svg" style="display: none;">
  <symbol id="external-link-square-alt" viewBox="0 0 448 512">
    <title id="external-link-square-alt-title">Alternate External Link Square</title>
    <path d="M448 80v352c0 26.51-21.49 48-48 48H48c-26.51 0-48-21.49-48-48V80c0-26.51 21.49-48 48-48h352c26.51 0 48 21.49 48 48zm-88 16H248.029c-21.313 0-32.08 25.861-16.971 40.971l31.984 31.987L67.515 364.485c-4.686 4.686-4.686 12.284 0 16.971l31.029 31.029c4.687 4.686 12.285 4.686 16.971 0l195.526-195.526 31.988 31.991C358.058 263.977 384 253.425 384 231.979V120c0-13.255-10.745-24-24-24z"></path>
  </symbol>
  <symbol id="bars" viewBox="0 0 448 512">
    <title id="bars-title">Bars</title>
    <path d="M16 132h416c8.837 0 16-7.163 16-16V76c0-8.837-7.163-16-16-16H16C7.163 60 0 67.163 0 76v40c0 8.837 7.163 16 16 16zm0 160h416c8.837 0 16-7.163 16-16v-40c0-8.837-7.163-16-16-16H16c-8.837 0-16 7.163-16 16v40c0 8.837 7.163 16 16 16zm0 160h416c8.837 0 16-7.163 16-16v-40c0-8.837-7.163-16-16-16H16c-8.837 0-16 7.163-16 16v40c0 8.837 7.163 16 16 16z"></path>
  </symbol>
  <symbol id="twitter" viewBox="0 0 512 512">
    <title id="twitter-title">Twitter</title>
    <path d="M459.37 151.716c.325 4.548.325 9.097.325 13.645 0 138.72-105.583 298.558-298.558 298.558-59.452 0-114.68-17.219-161.137-47.106 8.447.974 16.568 1.299 25.34 1.299 49.055 0 94.213-16.568 130.274-44.832-46.132-.975-84.792-31.188-98.112-72.772 6.498.974 12.995 1.624 19.818 1.624 9.421 0 18.843-1.3 27.614-3.573-48.081-9.747-84.143-51.98-84.143-102.985v-1.299c13.969 7.797 30.214 12.67 47.431 13.319-28.264-18.843-46.781-51.005-46.781-87.391 0-19.492 5.197-37.36 14.294-52.954 51.655 63.675 129.3 105.258 216.365 109.807-1.624-7.797-2.599-15.918-2.599-24.04 0-57.828 46.782-104.934 104.934-104.934 30.213 0 57.502 12.67 76.67 33.137 23.715-4.548 46.456-13.32 66.599-25.34-7.798 24.366-24.366 44.833-46.132 57.827 21.117-2.273 41.584-8.122 60.426-16.243-14.292 20.791-32.161 39.308-52.628 54.253z"></path>
  </symbol>
  <symbol id="facebook-f" viewBox="0 0 264 512">
    <title id="facebook-f-title">Facebook F</title>
    <path d="M76.7 512V283H0v-91h76.7v-71.7C76.7 42.4 124.3 0 193.8 0c33.3 0 61.9 2.5 70.2 3.6V85h-48.2c-37.8 0-45.1 18-45.1 44.3V192H256l-11.7 91h-73.6v229"></path>
  </symbol>
  <symbol id="instagram" viewBox="0 0 448 512">
    <title id="instagram-title">Instagram</title>
    <path d="M224.1 141c-63.6 0-114.9 51.3-114.9 114.9s51.3 114.9 114.9 114.9S339 319.5 339 255.9 287.7 141 224.1 141zm0 189.6c-41.1 0-74.7-33.5-74.7-74.7s33.5-74.7 74.7-74.7 74.7 33.5 74.7 74.7-33.6 74.7-74.7 74.7zm146.4-194.3c0 14.9-12 26.8-26.8 26.8-14.9 0-26.8-12-26.8-26.8s12-26.8 26.8-26.8 26.8 12 26.8 26.8zm76.1 27.2c-1.7-35.9-9.9-67.7-36.2-93.9-26.2-26.2-58-34.4-93.9-36.2-37-2.1-147.9-2.1-184.9 0-35.8 1.7-67.6 9.9-93.9 36.1s-34.4 58-36.2 93.9c-2.1 37-2.1 147.9 0 184.9 1.7 35.9 9.9 67.7 36.2 93.9s58 34.4 93.9 36.2c37 2.1 147.9 2.1 184.9 0 35.9-1.7 67.7-9.9 93.9-36.2 26.2-26.2 34.4-58 36.2-93.9 2.1-37 2.1-147.8 0-184.8zM398.8 388c-7.8 19.6-22.9 34.7-42.6 42.6-29.5 11.7-99.5 9-132.1 9s-102.7 2.6-132.1-9c-19.6-7.8-34.7-22.9-42.6-42.6-11.7-29.5-9-99.5-9-132.1s-2.6-102.7 9-132.1c7.8-19.6 22.9-34.7 42.6-42.6 29.5-11.7 99.5-9 132.1-9s102.7-2.6 132.1 9c19.6 7.8 34.7 22.9 42.6 42.6 11.7 29.5 9 99.5 9 132.1s2.7 102.7-9 132.1z"></path>
  </symbol>
  <symbol id="medium-m" viewBox="0 0 512 512">
    <title id="medium-m-title">Medium M</title>
    <path d="M71.5 142.3c.6-5.9-1.7-11.8-6.1-15.8L20.3 72.1V64h140.2l108.4 237.7L364.2 64h133.7v8.1l-38.6 37c-3.3 2.5-5 6.7-4.3 10.8v272c-.7 4.1 1 8.3 4.3 10.8l37.7 37v8.1H307.3v-8.1l39.1-37.9c3.8-3.8 3.8-5 3.8-10.8V171.2L241.5 447.1h-14.7L100.4 171.2v184.9c-1.1 7.8 1.5 15.6 7 21.2l50.8 61.6v8.1h-144v-8L65 377.3c5.4-5.6 7.9-13.5 6.5-21.2V142.3z"></path>
  </symbol>
  <symbol id="linkedin-in" viewBox="0 0 448.1 512">
    <title id="linkedin-in-title">LinkedIn In</title>
    <path d="M100.3 448H7.4V148.9h92.9V448zM53.8 108.1C24.1 108.1 0 83.5 0 53.8S24.1 0 53.8 0s53.8 24.1 53.8 53.8-24.1 54.3-53.8 54.3zM448 448h-92.7V302.4c0-34.7-.7-79.2-48.3-79.2-48.3 0-55.7 37.7-55.7 76.7V448h-92.8V148.9h89.1v40.8h1.3c12.4-23.5 42.7-48.3 87.9-48.3 94 0 111.3 61.9 111.3 142.3V448h-.1z"></path>
  </symbol>
  <symbol id="github" viewBox="0 0 496 484">
    <title id="github-title">GitHub</title>
    <path d="M165.9 389.4 C165.9 391.4 163.6 393 160.7 393 C157.4 393.3 155.1 391.7 155.1 389.4 C155.1 387.4 157.4 385.8 160.3 385.8 C163.3 385.5 165.9 387.1 165.9 389.4 Z M134.8 384.9 C134.1 386.9 136.1 389.2 139.1 389.8 C141.7 390.8 144.7 389.8 145.3 387.8 C145.9 385.8 144 383.5 141 382.6 C138.4 381.9 135.5 382.9 134.8 384.9 Z M179 383.2 C176.1 383.9 174.1 385.8 174.4 388.1 C174.7 390.1 177.3 391.4 180.3 390.7 C183.2 390 185.2 388.1 184.9 386.1 C184.6 384.2 181.9 382.9 179 383.2 Z M244.8 0 C106.1 0 0 105.3 0 244 C0 354.9 69.8 449.8 169.5 483.2 C182.3 485.5 186.8 477.6 186.8 471.1 C186.8 464.9 186.5 430.7 186.5 409.7 C186.5 409.7 116.5 424.7 101.8 379.9 C101.8 379.9 90.4 350.8 74 343.3 C74 343.3 51.1 327.6 75.6 327.9 C75.6 327.9 100.5 329.9 114.2 353.7 C136.1 392.3 172.8 381.2 187.1 374.6 C189.4 358.6 195.9 347.5 203.1 340.9 C147.2 334.7 90.8 326.6 90.8 230.4 C90.8 202.9 98.4 189.1 114.4 171.5 C111.8 165 103.3 138.2 117 103.6 C137.9 97.1 186 130.6 186 130.6 C206 125 227.5 122.1 248.8 122.1 C270.1 122.1 291.6 125 311.6 130.6 C311.6 130.6 359.7 97 380.6 103.6 C394.3 138.3 385.8 165 383.2 171.5 C399.2 189.2 409 203 409 230.4 C409 326.9 350.1 334.6 294.2 340.9 C303.4 348.8 311.2 363.8 311.2 387.3 C311.2 421 310.9 462.7 310.9 470.9 C310.9 477.4 315.5 485.3 328.2 483 C428.2 449.8 496 354.9 496 244 C496 105.3 383.5 0 244.8 0 Z M97.2 344.9 C95.9 345.9 96.2 348.2 97.9 350.1 C99.5 351.7 101.8 352.4 103.1 351.1 C104.4 350.1 104.1 347.8 102.4 345.9 C100.8 344.3 98.5 343.6 97.2 344.9 Z M86.4 336.8 C85.7 338.1 86.7 339.7 88.7 340.7 C90.3 341.7 92.3 341.4 93 340 C93.7 338.7 92.7 337.1 90.7 336.1 C88.7 335.5 87.1 335.8 86.4 336.8 Z M118.8 372.4 C117.2 373.7 117.8 376.7 120.1 378.6 C122.4 380.9 125.3 381.2 126.6 379.6 C127.9 378.3 127.3 375.3 125.3 373.4 C123.1 371.1 120.1 370.8 118.8 372.4 Z M107.4 357.7 C105.8 358.7 105.8 361.3 107.4 363.6 C109 365.9 111.7 366.9 113 365.9 C114.6 364.6 114.6 362 113 359.7 C111.6 357.4 109 356.4 107.4 357.7 Z"></path>
  </symbol>
  <symbol id="play" viewBox="0 0 448 512">
    <title id="play-title">play</title>
    <path d="M424.4 214.7L72.4 6.6C43.8-10.3 0 6.1 0 47.9V464c0 37.5 40.7 60.1 72.4 41.3l352-208c31.4-18.5 31.5-64.1 0-82.6z"></path>
  </symbol>
  <symbol id="angle-left" viewBox="0 0 192 512">
    <title id="angle-left-title">angle left</title>
    <path d="M4.2 247.5L151 99.5c4.7-4.7 12.3-4.7 17 0l19.8 19.8c4.7 4.7 4.7 12.3 0 17L69.3 256l118.5 119.7c4.7 4.7 4.7 12.3 0 17L168 412.5c-4.7 4.7-12.3 4.7-17 0L4.2 264.5c-4.7-4.7-4.7-12.3 0-17z"/>
  </symbol>
</svg>
