<svg viewBox="-20 -20 600 600" version="1.1" xmlns="http://www.w3.org/2000/svg" xmlns:xlink="http://www.w3.org/1999/xlink">
    <g id="hourglass-start-solid" fill="#D1D1D1" fill-rule="nonzero">
        <path d="M23.4375,0 L1.5625,0 C0.699544271,0 0,0.699544271 0,1.5625 L0,2.60416667 C0,3.4671224 0.699544271,4.16666667 1.5625,4.16666667 C1.5625,10.0888672 4.88385417,15.086849 9.42981771,16.6666667 C4.88385417,18.2464844 1.5625,23.2444661 1.5625,29.1666667 C0.699544271,29.1666667 0,29.8662109 0,30.7291667 L0,31.7708333 C0,32.6337891 0.699544271,33.3333333 1.5625,33.3333333 L23.4375,33.3333333 C24.3004557,33.3333333 25,32.6337891 25,31.7708333 L25,30.7291667 C25,29.8662109 24.3004557,29.1666667 23.4375,29.1666667 C23.4375,23.2444661 20.1161458,18.2464844 15.5701823,16.6666667 C20.1161458,15.086849 23.4375,10.0888672 23.4375,4.16666667 C24.3004557,4.16666667 25,3.4671224 25,2.60416667 L25,1.5625 C25,0.699544271 24.3004557,0 23.4375,0 Z M19.2708333,29.1666667 L5.72916667,29.1666667 C5.72916667,24.1238281 8.73723958,19.7916667 12.5,19.7916667 C16.2621094,19.7916667 19.2708333,24.1222005 19.2708333,29.1666667 Z"></path>
    </g>

</svg>
