<svg id="Layer_1" data-name="Layer 1" xmlns="http://www.w3.org/2000/svg" viewBox="0 0 475 122"><defs><style>.cls-1{fill:#afafb0;}</style></defs><title>press-logo-nextgov</title> <g id="press-logo-nextgov" stroke="none" stroke-width="1" fill="none" fill-rule="evenodd"> <g id="Artboard" fill="#ADABAC" fill-rule="nonzero"> <g id="nextgov-vector-logo" transform="translate(0.000000, 55.000000)"> <path d="M0,0 L120,0 L120,55 L0,55 L0,0 Z M19.86,35.2087872 L21.82,34.5497458 L21.82,32.7923021 L15.26,32.7923021 L15.26,34.5497458 L17.22,35.2087872 L17.22,43.7962963 L12.08,32.7923021 L4.98,32.7923021 L4.98,34.5497458 L6.94,35.2087872 L6.94,45.13435 L5,45.8333333 L5,47.4509804 L11.54,47.4509804 L11.54,45.8333333 L9.62,45.13435 L9.62,35.3685548 L10.12,35.3685548 L16.18,47.4509804 L19.86,47.4509804 L19.86,35.2087872 Z M25.58,42.3783588 L32.8,42.3783588 C32.8,40.1216412 32.92,36.2273057 27.96,36.2273057 C24.04,36.2273057 22.48,38.6837328 22.48,42.1187364 C22.48,44.0758896 23.26,47.6906318 28.32,47.6906318 C29.72,47.6906318 31.1,47.4509804 32.4,46.9716776 L31.96,44.9346405 C31.96,44.9346405 30.28,45.3740015 28.78,45.3740015 C25.86,45.3740015 25.58,43.4168482 25.58,42.3783588 Z M27.76,38.0246914 C29.52,38.0246914 29.64,39.6623094 29.64,40.5010893 L25.58,40.5010893 C25.74,39.2229484 26.14,38.0246914 27.76,38.0246914 Z M45.6,38.0846042 L45.6,36.52687 L40.44,36.52687 L40.44,38.0047204 L41.56,38.3641975 L40.08,40.2814089 L37.4,36.52687 L33.7,36.52687 L33.7,38.2443718 L35.76,38.9433551 L38.16,42.0188816 L35.58,45.0544662 L33.84,45.8732752 L33.84,47.4509804 L39.04,47.4509804 L39.04,45.9931009 L37.96,45.573711 L39.4,43.6165577 L42.08,47.4509804 L45.58,47.4509804 L45.58,45.8333333 L43.7,45.0544662 L41.26,41.9190269 L43.76,38.9633261 L45.6,38.0846042 Z M51.38,47.610748 C52.52,47.5907771 53.66,47.4110385 54.76,47.0915033 L54.34,45.2541757 C54.28,45.2541757 53.1,45.5337691 52.14,45.5337691 C51.24,45.5337691 50.9,45.13435 50.74,44.6949891 C50.58,44.2556282 50.6,43.7962963 50.6,43.3369644 L50.6,38.4041394 L54.18,38.4241104 L54.18,36.52687 L50.6,36.52687 L50.6,33.7908497 L48.72,33.7908497 L47.76,36.52687 L45.76,36.52687 L45.76,38.4241104 L47.62,38.4241104 L47.62,43.2770516 C47.62,45.6535948 47.82,47.610748 51.38,47.610748 Z M64.72,38.3641975 L66.86,38.3641975 L66.86,36.3671024 L62.36,36.4869281 C61.8,36.2872186 61.14,36.2273057 60.4,36.2273057 C57.78,36.2273057 55.6,37.3057371 55.6,40.0816993 C55.6,41.5994916 56.48,42.7777778 58,43.3369644 C57.58,43.6365287 56.96,44.0359477 56.96,44.8148148 C56.96,45.3140886 57.3,45.7734205 57.7,46.0530138 C56.12,46.2926652 54.7,47.191358 54.7,49.0486565 C54.7,51.9244735 58.16,52.3638344 60.44,52.3638344 C63.06,52.3638344 66.46,51.5849673 66.46,48.449528 C66.46,46.0330428 64.7,45.3540305 62.68,45.3540305 L60.78,45.3540305 C60.04,45.3540305 59.58,45.2541757 59.58,44.5751634 C59.58,44.2156863 59.94,43.8961511 59.94,43.8961511 C59.94,43.8961511 60.34,43.916122 60.54,43.916122 C63.02,43.916122 65.2,42.8177197 65.2,40.0816993 C65.2,39.4825708 65.04,38.8834423 64.72,38.3641975 Z M62.06,47.4909223 C62.78,47.4909223 63.54,47.6506899 63.54,48.6692084 C63.54,50.1670298 61.78,50.6263617 60.56,50.6263617 C59.46,50.6263617 57.76,50.3467683 57.76,48.9687727 C57.76,47.630719 58.82,47.4909223 59.72,47.4909223 L62.06,47.4909223 Z M60.38,37.9248366 C61.8,37.9248366 62.18,38.7835875 62.16,40.0617284 C62.16,41.3398693 61.78,42.2185911 60.38,42.2185911 C58.98,42.2185911 58.6,41.3598402 58.6,40.0816993 C58.6,38.8035585 58.98,37.9248366 60.38,37.9248366 Z M73.06,47.6906318 C76.62,47.6906318 78.62,45.6336238 78.62,41.9589688 C78.62,38.2843137 76.62,36.2273057 73.06,36.2273057 C69.5,36.2273057 67.5,38.2843137 67.5,41.9589688 C67.5,45.6336238 69.5,47.6906318 73.06,47.6906318 Z M73.06,38.0446623 C74.82,38.0446623 75.52,39.402687 75.52,41.9389978 C75.52,44.4753086 74.8,45.8533043 73.06,45.8533043 C71.32,45.8533043 70.6,44.4753086 70.6,41.9589688 C70.6,39.4426289 71.32,38.0446623 73.06,38.0446623 Z M91.06,38.7436456 L92.38,38.2843137 L92.38,36.52687 L86.72,36.52687 L86.72,38.2843137 L88.2,38.7436456 L86.28,45.0145243 L85.8,45.0145243 L83.64,38.7236747 L85.18,38.2843137 L85.18,36.52687 L79.24,36.52687 L79.24,38.2843137 L80.56,38.7436456 L83.94,47.4509804 L87.54,47.4509804 L91.06,38.7436456 Z" id="Combined-Shape"></path> </g> </g> </g> </svg>
