<?xml version="1.0" encoding="utf-8"?>
<!-- Generator: Adobe Illustrator 22.1.0, SVG Export Plug-In . SVG Version: 6.00 Build 0)  -->
<svg version="1.1" id="Layer_1" xmlns="http://www.w3.org/2000/svg" xmlns:xlink="http://www.w3.org/1999/xlink" x="0px" y="0px"
	 viewBox="0 0 475 122" style="enable-background:new 0 0 475 122;" xml:space="preserve">
<style type="text/css">
	.st0{fill:#AFAFB0;}
</style>
<title>press-logo-yahoo-finance</title>
<g id="Page-1">
	<g id="Artboard">
		<g id="press-logo-yahoo-finance-01" transform="translate(0.000000, 54.000000)">
			<path id="Combined-Shape" class="st0" d="M164.7,0.4c1.3,0.2,2.1,1,2.3,2.4c0,0.3-0.1,1-0.2,1.5c-1,3.8-4.3,17.2-5.6,26.1
				l-0.9-0.9l0.5,1c-0.6-0.2-1.2-0.3-1.9-0.2l0.1-0.1c1.3-8.8,1.9-18,2.7-27.3V2.8V2.7c0-0.2,0.1-0.5,0.2-0.8
				c0.3-1.1,1.3-1.6,2.3-1.6c0.3,0,0.5,0,0.5,0V0.4C164.6,0.4,164.6,0.4,164.7,0.4z M47.6,34.7c-1.2-3-2.4-6-3.8-8.9
				c-4.2-0.1-8.4-0.1-12.5,0c-1.2,3.1-2.5,6.2-3.5,8.9c-1.2-0.2-3.1-0.5-5.1,0l1-0.4h-0.1l-0.9,0.4c4.3-8.6,8.9-20.3,13.1-30.6
				c1.4,0.4,2.4,0.4,3.5,0L39,4.3l0.5-0.2c3.9,9.9,10.1,24.8,13.2,30.6c-1.4-0.4-3.2-0.5-5.1,0v-0.1C47.7,34.6,47.7,34.7,47.6,34.7z
				 M37.7,9.5c-1.1,3.1-3.1,8.6-5.4,14.3c3.7,0.1,7.2,0.1,10.9,0C41.4,18.9,39.4,14.2,37.7,9.5z M17.2,22.1l0.6,16.6
				c0,0-1.3-0.2-2.5-0.2c-1.1,0-2.5,0.2-2.5,0.2l0.2-16.4h0.1C10.9,18.3,4.3,6.3,0,0c2,0.5,3,0.4,5.1,0c2.7,4.6,6.7,11.4,10.2,17.1
				c3.2-5.7,8.6-14.2,10.1-17L25.3,0h0.1c1.5,0.3,3.1,0.3,4.8,0.1c0.1,0,0.1,0,0.2-0.1C28.4,2.6,21.5,14.6,17.2,22.1z M99.1,3.7
				c10,0,16.4,5.9,16.4,16c0,8.7-5.4,15.5-16.5,15.5c-10.2,0-16.4-6-16.4-15.7C82.5,10.5,88.2,3.7,99.1,3.7z M98.8,5.6
				c-5.8,0.1-11.2,4-11.3,14.1c0,8.7,4.3,13.9,11.5,13.9c6.6,0,11.5-4.5,11.5-14s-4.9-14-11.5-14C98.9,5.6,98.9,5.6,98.8,5.6z
				 M136.4,1.8c12.1,0,19.1,7.2,19.1,17.6c0,11.2-7.5,17.5-19,17.5c-13.6,0-19.1-8.3-19.1-17.6C117.4,8,125.6,1.8,136.4,1.8z
				 M122.4,19.5c0,11.5,6.8,15.7,14,15.8c6.9,0,14.1-3.9,14.1-15.7c0-10.9-5.9-15.8-14.1-15.8C129.9,3.8,122.5,7.3,122.4,19.5z
				 M158.9,33.9c1.5,0,2.7,1,2.7,2.3c0,1.8-1.2,2.5-2.4,2.5c-1.6,0.2-2.8-0.6-2.8-2.1C156.5,35.1,157.2,33.9,158.9,33.9z M76.3,20.4
				L76,20.5c-5.6-0.1-11.3,0-17,0c0,4.7,0.1,9.5,0.3,14.2c-1.4-0.3-2.9-0.3-4.3-0.1l-0.9,0.2c0.4-10.2,0.4-20.4,0-30.6l0.2,0.1
				l-0.1-0.1c1.7,0.4,3.5,0.4,5.1,0C59.1,8.8,59,13.7,59,18.4c5.7,0.1,11.4,0.1,17.1,0c0-4.7-0.1-9.5-0.3-14.2l0.3,0.1L76,4.2
				c1.5,0.4,3.3,0.4,5.1,0c-0.4,10.2-0.4,20.3,0,30.5v0.1l-1-0.3c-1.3-0.1-2.7-0.1-4,0.2l0.2-0.1L76,34.7
				C76.2,30,76.3,25.2,76.3,20.4z M45.7,55.8V44.6h8v1.1h-5.2v3.5h4.7v1.1h-4.7v5.5H45.7z M56.2,44.6H59v11.2h-2.8V44.6z M69.7,51.6
				v-7h1.8V56h-1.4l-7-7.7V56h-1.7V44.6h0.2h1.5L69.7,51.6z M78.6,44.4h1.2l5.2,11.4h-2.8l-1.3-3.1h-4.4l-1.5,3.1h-1.8L78.6,44.4z
				 M76.9,51.6h3.3l-1.5-3.7L76.9,51.6z M94.6,51.6v-7h1.8V56h-1.3l-7-7.7V56h-1.8V44.6h1.8L94.6,51.6z M112.9,55.8V44.6h8.3v1.1
				h-5.7v3.5h4.6v1.1h-4.6v4.4h5.7v1.1H112.9z"/>
		</g>
	</g>
</g>
<path class="st0" d="M110.4,100.7c0.2,0.3,0.7,0.6,0,1c-0.4,0.2-0.7,0.7-1.2,0c-0.4-0.6-0.9-1-1.5-1.4c-1.8-1.1-4.1-0.6-5.2,1.2
	c-1,1.8-1,3.6-0.1,5.4c1.4,2.6,4.5,2.7,6.6,0.2c0.2-0.3,0.3-1,1-0.4c0.6,0.4,0.6,0.7,0.2,1.3c-1.8,2.1-4.1,2.4-6.2,2.2
	c-2.2-0.2-4.4-1.8-5.1-4.2c-1-3.8,1.7-7.3,5.6-7.6C107.2,98.1,109.1,99,110.4,100.7z"/>
</svg>
