<svg id="Layer_1" data-name="Layer 1" xmlns="http://www.w3.org/2000/svg" viewBox="0 0 475 122"><defs><style>.cls-1{fill:#afafb0;}</style></defs><title>press-logo-yahoo-finance</title>
<g id="Page-1" stroke="none" stroke-width="1" fill="none" fill-rule="evenodd">
    <g id="press-logo-yahoo-finance-01" fill="#AFAFB0" fill-rule="nonzero">
        <path d="M153.4,1.3 L153.4,1.3 C153.3,1.3 153.3,1.3 153.4,1.3 L153.4,1.2 C153.4,1.2 153.2,1.2 152.9,1.2 C152,1.2 151.1,1.7 150.8,2.7 C150.7,2.9 150.6,3.2 150.6,3.4 C150.6,3.4 150.6,3.5 150.6,3.5 C150.6,3.5 150.6,3.6 150.6,3.6 C149.9,12.3 149.3,20.8 148.1,29 L148.1,29 L148,29.1 C148.7,29 149.2,29.1 149.8,29.3 L149.3,28.4 L150.1,29.2 C151.3,20.9 154.4,8.4 155.3,4.9 C155.4,4.4 155.5,3.8 155.5,3.5 C155.4,2.2 154.6,1.5 153.4,1.3 Z" id="Path"></path>
        <path d="M44.4,33.2 C44.5,33.2 44.5,33.1 44.5,33.1 L44.5,33.2 C46.2,32.7 47.9,32.8 49.2,33.2 L49.2,33.2 L49.2,33.2 C49.2,33.2 49.2,33.2 49.2,33.2 L49.2,33.2 C46.3,27.8 40.5,13.9 36.9,4.7 L36.4,4.9 L36.8,4.7 C35.7,5.1 34.8,5.1 33.5,4.7 C29.6,14.3 25.3,25.2 21.3,33.2 L22.1,32.8 L22.2,32.8 L21.3,33.2 C23.1,32.7 24.9,33 26,33.2 C27,30.7 28.2,27.8 29.3,24.9 L29.3,24.9 C33.1,24.8 37,24.8 40.9,24.9 C42.2,27.6 43.3,30.4 44.4,33.2 Z M35.2,9.7 C36.8,14.1 38.6,18.5 40.3,23 L40.3,23 C36.9,23.1 33.6,23.1 30.2,23 C32.3,17.7 34.2,12.6 35.2,9.7 Z" id="Shape"></path>
        <path d="M16.1,21.5 C20.1,14.5 26.5,3.3 28.4,0.9 C28.3,1 28.3,1 28.2,1 C26.6,1.2 25.1,1.2 23.7,0.9 L23.7,0.9 C23.7,0.9 23.7,0.9 23.7,0.9 C23.7,0.9 23.6,0.9 23.6,0.9 L23.7,1 C22.3,3.6 17.3,11.5 14.3,16.8 C11,11.5 7.3,5.2 4.8,0.9 C2.9,1.3 2,1.4 0.1,0.9 C0.1,0.9 0.1,0.9 0.1,0.9 L0.1,0.9 C0.1,0.9 0.1,0.9 0.1,0.9 L0.1,0.9 C4.1,6.8 10.2,17.9 12.4,21.6 L12.3,21.6 L12.1,36.9 C12.1,36.9 13.4,36.7 14.4,36.7 C15.5,36.7 16.7,36.9 16.7,36.9 L16.1,21.5 L16.1,21.5 Z" id="Path"></path>
        <path d="M92.3,4.3 C82.2,4.3 76.9,10.7 76.9,19 C76.9,28 82.7,33.6 92.2,33.6 C102.6,33.6 107.6,27.3 107.6,19.2 C107.6,9.8 101.6,4.3 92.3,4.3 Z M92,6.1 C92.1,6.1 92.1,6.1 92.2,6.1 C98.3,6.1 102.9,10.3 102.9,19.1 C102.9,27.9 98.3,32.1 92.2,32.1 C85.5,32.1 81.5,27.3 81.5,19.2 C81.6,9.8 86.6,6.2 92,6.1 Z" id="Shape"></path>
        <path d="M127,2.6 C117,2.6 109.3,8.3 109.3,18.9 C109.3,27.6 114.4,35.3 127.1,35.3 C137.8,35.3 144.8,29.4 144.8,19 C144.8,9.3 138.3,2.6 127,2.6 Z M114,19 C114.1,7.7 121,4.4 127,4.4 C134.6,4.4 140.1,9 140.1,19.1 C140.1,30.1 133.4,33.7 127,33.7 C120.3,33.6 114,29.7 114,19 Z" id="Shape"></path>
        <path d="M148,32.4 C146.4,32.4 145.7,33.6 145.7,34.8 C145.7,36.2 146.8,37 148.3,36.8 C149.4,36.8 150.5,36.2 150.5,34.5 C150.5,33.3 149.4,32.4 148,32.4 Z" id="Path"></path>
        <path d="M71.1,19.9 C71.1,24.3 71,28.8 70.8,33.2 L71.1,33.1 L70.9,33.2 C72.1,32.9 73.4,32.9 74.6,33 L75.5,33.3 C75.5,33.3 75.5,33.2 75.5,33.2 C75.5,33.2 75.5,33.2 75.5,33.2 L75.5,33.2 C75.1,23.7 75.1,14.3 75.5,4.8 C73.9,5.2 72.2,5.2 70.8,4.8 L70.9,4.9 L70.6,4.8 C70.8,9.2 70.9,13.6 70.9,18 C65.6,18.1 60.3,18.1 55,18 C55,13.6 55.1,9.1 55.3,4.8 C53.9,5.2 52.2,5.2 50.6,4.8 L50.7,4.9 L50.5,4.8 C50.9,14.3 50.9,23.8 50.5,33.3 L51.3,33.1 C52.6,32.9 54,32.9 55.3,33.2 C55.1,28.8 55,24.4 55,20 C60.3,20 65.6,19.9 70.8,20 L71.1,19.9 Z" id="Path"></path>
        <polygon id="Path" points="42.6 52.8 45.2 52.8 45.2 47.7 49.6 47.7 49.6 46.7 45.2 46.7 45.2 43.4 50 43.4 50 42.4 42.6 42.4"></polygon>
        <rect id="Rectangle" x="52.4" y="42.4" width="2.6" height="10.4"></rect>
        <polygon id="Path" points="65 48.9 58.9 42.4 57.5 42.4 57.3 42.4 57.3 53 58.9 53 58.9 45.8 65.4 53 66.7 53 66.7 42.4 65 42.4"></polygon>
        <path d="M73.2,42.2 L68.1,52.8 L69.8,52.8 L71.2,49.9 L75.3,49.9 L76.5,52.8 L79.1,52.8 L74.3,42.2 L73.2,42.2 Z M71.7,48.9 L73.4,45.5 L74.8,48.9 L71.7,48.9 Z" id="Shape"></path>
        <polygon id="Path" points="88.1 48.9 82.1 42.4 80.4 42.4 80.4 53 82.1 53 82.1 45.8 88.6 53 89.8 53 89.8 42.4 88.1 42.4"></polygon>
        <polygon id="Path" points="105.2 52.8 112.9 52.8 112.9 51.8 107.6 51.8 107.6 47.7 111.9 47.7 111.9 46.7 107.6 46.7 107.6 43.4 112.9 43.4 112.9 42.4 105.2 42.4"></polygon>
        <path d="M95.7,43.7 C96.1,43.3 96.6,43 97.1,42.7 C97.6,42.5 98.2,42.6 98.8,42.6 C99.5,42.6 100,42.8 100.6,43.2 C101.2,43.6 101.8,44 102.2,44.9 L103,44.4 C102.8,44 102.5,43.7 102.2,43.4 C101.9,43.1 101.5,42.8 101.1,42.5 C100.7,42.3 100.3,42.1 99.8,41.9 C99.3,41.7 98.8,41.7 98.2,41.7 C97.6,41.7 97,41.8 96.5,41.9 C96,42 95.5,42.2 95,42.5 C94.6,42.7 94.2,43 93.8,43.4 C93.4,43.7 93.1,44.1 92.9,44.5 C92.7,44.9 92.5,45.4 92.3,45.8 C92.1,46.2 92.1,46.8 92.1,47.2 C92.1,47.9 92.2,48.6 92.5,49.3 C92.8,50 93.2,50.6 93.7,51 C94.2,51.5 94.8,51.9 95.6,52.2 C96.3,52.5 97.1,52.6 98,52.6 C98.6,52.6 99.2,52.5 99.7,52.4 C100.2,52.3 100.6,52.1 101,51.8 C101.4,51.5 101.7,51.3 102,50.9 C102.3,50.6 102.6,50.2 102.8,49.9 L102,49.4 C101.9,49.7 101.7,50 101.4,50.3 C101.2,50.6 100.9,50.8 100.6,51.1 C100.3,51.3 100,51.5 99.6,51.7 C99.3,51.8 98.9,51.9 98.5,51.9 C97.9,51.9 97.3,51.8 96.8,51.6 C96.3,51.4 95.8,51.1 95.4,50.7 C95,50.3 94.7,49.8 94.5,49.2 C94.3,48.6 94.2,48 94.2,47.2 C94.2,46.5 94.3,45.8 94.5,45.2 C95,44.7 95.3,44.2 95.7,43.7 Z" id="Path" stroke="#AFAFB0" stroke-width="0.5"></path>
    </g>
</g>
</svg>
