<svg id="Layer_1" data-name="Layer 1" xmlns="http://www.w3.org/2000/svg" viewBox="0 0 475 122"><defs><style>.cls-1{fill:#afafb0;}</style></defs><title>press-logo-nextgov</title> <g id="press-logo-nextgov" stroke="none" stroke-width="1" fill="none" fill-rule="evenodd"> <g id="Artboard" fill="#ADABAC" fill-rule="nonzero"> <g id="press-logo-fed-scoop" transform="translate(0.000000, 54.000000)"> <g id="Group"> <path d="M52.627451,14.25 C52.627451,9.84545455 52.627451,5.52727273 52.627451,1.20909091 C54.6980392,1.20909091 56.5960784,1.20909091 58.5803922,1.20909091 C58.5803922,15.8045455 58.5803922,30.4 58.5803922,45.0818182 C56.6823529,45.0818182 54.7843137,45.0818182 52.7137255,45.0818182 C52.7137255,44.4772727 52.7137255,43.8727273 52.627451,43.1818182 C51.6784314,43.8727273 50.8156863,44.5636364 49.8666667,45.0818182 C47.8823529,46.2045455 45.8980392,45.6863636 44.6039216,43.7863636 C43.654902,42.4045455 43.2235294,40.9363636 43.2235294,39.3818182 C43.2235294,32.3 43.2235294,25.2181818 43.2235294,18.1363636 C43.2235294,16.5818182 43.654902,15.0272727 44.5176471,13.7318182 C45.8117647,11.9181818 47.7098039,11.3136364 49.6941176,12.35 C50.7294118,12.8681818 51.5921569,13.5590909 52.627451,14.25 Z M52.627451,37.3090909 C52.627451,31.6090909 52.627451,25.9090909 52.627451,20.2090909 C52.627451,19.8636364 52.627451,19.4318182 52.5411765,19 C52.3686275,18.05 51.5058824,17.3590909 50.7294118,17.4454545 C49.7803922,17.6181818 49.3490196,18.3090909 49.2627451,19.1727273 C49.2627451,19.5181818 49.2627451,19.7772727 49.2627451,20.1227273 C49.2627451,23.0590909 49.2627451,25.9090909 49.2627451,28.7590909 C49.2627451,31.8681818 49.2627451,34.8909091 49.2627451,37.9136364 C49.2627451,39.1227273 49.9529412,39.9 50.9019608,39.9 C51.8509804,39.8136364 52.5411765,39.0363636 52.627451,37.9136364 C52.627451,37.7409091 52.627451,37.4818182 52.627451,37.3090909 Z M175.223529,19 C175.223529,25.5636364 175.223529,32.1272727 175.223529,38.6909091 C175.223529,39.9863636 174.964706,41.2818182 174.533333,42.4909091 C173.411765,45.4272727 170.823529,46.2045455 168.14902,44.5636364 C167.372549,44.0454545 166.682353,43.5272727 165.819608,42.8363636 C165.733333,43.3545455 165.733333,43.7 165.733333,44.0454545 C165.733333,47.6727273 165.647059,51.3863636 165.733333,55.0136364 C165.733333,56.05 165.47451,56.3090909 164.52549,56.2227273 C163.317647,56.1363636 162.196078,56.1363636 161.07451,56.2227273 C160.12549,56.3090909 159.952941,55.8772727 159.952941,55.0136364 C159.952941,53.1136364 159.952941,51.1272727 159.952941,49.1409091 C159.952941,37.4818182 159.952941,25.9090909 159.952941,14.25 C159.952941,12.0909091 159.780392,12.4363636 161.85098,12.4363636 C163.058824,12.4363636 164.352941,12.4363636 165.647059,12.4363636 C165.647059,13.2136364 165.733333,13.7318182 165.733333,14.5090909 C166.25098,14.0772727 166.682353,13.7318182 167.113725,13.4727273 C168.321569,12.6090909 169.529412,11.6590909 171.082353,11.9181818 C173.239216,12.1772727 174.705882,13.9045455 175.05098,16.4954545 C175.137255,17.3590909 175.223529,18.1363636 175.223529,19 Z M169.356863,28.7590909 C169.356863,27.0318182 169.356863,25.2181818 169.356863,23.4045455 C169.356863,22.0227273 169.356863,20.6409091 169.356863,19.2590909 C169.356863,18.3090909 168.752941,17.5318182 167.890196,17.4454545 C167.027451,17.3590909 166.164706,17.9636364 165.905882,18.9136364 C165.733333,19.2590909 165.733333,19.6909091 165.733333,20.1227273 C165.733333,25.8227273 165.733333,31.5227273 165.733333,37.2227273 C165.733333,37.5681818 165.733333,37.9136364 165.819608,38.2590909 C166.078431,39.2954545 167.027451,40.0727273 167.803922,39.9863636 C168.666667,39.9863636 169.356863,39.1227273 169.356863,37.9136364 C169.356863,37.5681818 169.356863,37.3090909 169.356863,37.05 C169.356863,34.2863636 169.356863,31.5227273 169.356863,28.7590909 Z M29.5058824,33.4227273 C31.4039216,33.4227273 33.2156863,33.4227273 35.027451,33.3363636 C35.1137255,35.8409091 35.2862745,38.2590909 34.3372549,40.6772727 C33.0431373,43.8727273 30.627451,45.5136364 27.0039216,45.4272727 C23.6392157,45.3409091 21.2235294,43.7 20.1882353,40.4181818 C19.7568627,39.1227273 19.4980392,37.6545455 19.4980392,36.2727273 C19.4117647,31.1772727 19.4980392,26.0818182 19.4980392,20.9863636 C19.5843137,18.5681818 20.1019608,16.2363636 21.654902,14.3363636 C25.0196078,10.2772727 31.9215686,11.1409091 34.0784314,15.9772727 C34.5098039,17.0136364 34.9411765,18.1363636 34.9411765,19.1727273 C35.027451,22.7136364 34.9411765,26.1681818 34.9411765,29.7954545 C31.7490196,29.7954545 28.5568627,29.7954545 25.1921569,29.7954545 C25.1921569,32.5590909 25.1058824,35.2363636 25.1921569,37.8272727 C25.2784314,38.4318182 25.5372549,39.0363636 25.8823529,39.5545455 C26.6588235,40.6772727 28.4705882,40.5909091 28.9882353,39.2090909 C29.3333333,38.2590909 29.4196078,37.2227273 29.5058824,36.2727273 C29.5921569,35.3227273 29.5058824,34.3727273 29.5058824,33.4227273 Z M25.4509804,18.9136364 C25.1921569,20.9 25.1058824,22.9727273 25.1058824,25.1318182 C26.745098,25.1318182 28.1254902,25.1318182 29.5921569,25.1318182 C29.5921569,23.3181818 29.5921569,21.7636364 29.5921569,20.1227273 C29.5921569,19.7772727 29.5058824,19.4318182 29.4196078,19.0863636 C29.0745098,17.7909091 28.4705882,17.1863636 27.3490196,17.1863636 C26.1411765,17.1863636 25.5372549,17.9636364 25.4509804,18.9136364 Z M150.290196,15.8045455 C150.894118,17.3590909 151.32549,19.0863636 151.411765,20.8136364 C151.584314,26.3409091 151.584314,31.7818182 151.411765,37.2227273 C151.32549,38.8636364 150.807843,40.5909091 150.117647,42.0590909 C148.823529,44.7363636 146.321569,45.6863636 143.47451,45.6 C140.368627,45.4272727 138.039216,44.0454545 137.003922,41.1090909 C136.572549,39.8136364 136.313725,38.3454545 136.227451,36.9636364 C136.141176,34.2 136.227451,31.5227273 136.227451,28.8454545 C136.227451,25.9090909 136.141176,22.9727273 136.227451,20.0363636 C136.227451,18.1363636 136.917647,16.4954545 137.866667,14.8545455 C140.368627,10.6227273 148.392157,11.0545455 150.290196,15.8045455 Z M145.976471,37.4818182 C145.976471,31.6090909 145.976471,25.8227273 146.14902,19.95 C146.14902,19.3454545 145.890196,18.7409091 145.717647,18.1363636 C145.372549,17.3590909 144.768627,17.0136364 143.905882,17.0136364 C143.043137,17.0136364 142.439216,17.3590909 142.180392,18.1363636 C141.921569,18.7409091 141.74902,19.4318182 141.74902,20.0363636 C141.74902,22.9727273 141.74902,25.8227273 141.74902,28.6727273 C141.74902,30.5727273 141.74902,32.3863636 141.74902,34.2863636 C141.74902,35.4954545 141.662745,36.7045455 141.74902,37.9136364 C141.835294,39.7272727 143.043137,40.6772727 144.509804,40.2454545 C145.372549,39.9 145.976471,38.8636364 145.976471,37.4818182 Z M127.945098,20.3818182 C128.203922,23.1454545 128.031373,25.9954545 128.031373,28.7590909 C128.031373,31.5227273 128.117647,34.3727273 128.031373,37.2227273 C127.945098,39.3818182 127.341176,41.2818182 126.047059,43.0090909 C123.545098,46.3772727 116.12549,46.3772727 114.054902,41.7136364 C113.364706,40.2454545 112.847059,38.6045455 112.847059,36.9636364 C112.760784,31.4363636 112.847059,25.8227273 112.847059,20.2954545 C112.847059,18.2227273 113.537255,16.4090909 114.658824,14.5954545 C117.07451,10.7090909 124.752941,11.0545455 126.737255,15.5454545 C127.427451,17.0136364 127.858824,18.7409091 127.945098,20.3818182 Z M122.596078,37.3090909 C122.596078,34.3727273 122.596078,31.4363636 122.682353,28.5863636 C122.682353,25.8227273 122.682353,22.9727273 122.682353,20.2090909 C122.682353,19.8636364 122.682353,19.4318182 122.596078,19 C122.337255,17.7909091 121.647059,17.1 120.611765,17.1 C119.576471,17.1 118.886275,17.6181818 118.541176,18.9136364 C118.454902,19.2590909 118.368627,19.6909091 118.368627,20.1227273 C118.368627,25.65 118.368627,31.2636364 118.368627,36.8772727 C118.368627,37.5681818 118.454902,38.2590909 118.627451,38.95 C118.886275,39.7272727 119.490196,40.3318182 120.439216,40.3318182 C121.388235,40.3318182 122.078431,39.8136364 122.337255,38.95 C122.509804,38.4318182 122.596078,37.8272727 122.596078,37.3090909 Z M95.7647059,18.8272727 C95.6784314,21.1590909 95.6784314,23.4045455 95.6784314,25.65 C95.6784314,29.7954545 95.6784314,33.9409091 95.6784314,38.0863636 C95.6784314,39.5545455 96.2823529,40.2454545 97.4039216,40.2454545 C98.4392157,40.2454545 99.0431373,39.8136364 99.1294118,38.7772727 C99.2156863,37.2227273 99.2156863,35.6681818 99.2156863,34.1136364 C99.2156863,33.3363636 99.3882353,32.9909091 100.25098,32.9909091 C101.631373,33.0772727 102.92549,32.9909091 104.219608,33.0772727 C104.478431,33.0772727 104.996078,33.5090909 104.996078,33.6818182 C104.996078,35.7545455 105.082353,37.9136364 104.737255,39.9 C103.960784,44.3045455 101.286275,45.8590909 96.5411765,45.4272727 C92.227451,44.9954545 89.9843137,42.3181818 89.8980392,37.6545455 C89.8117647,31.7818182 89.8117647,25.8227273 89.8980392,19.8636364 C89.8980392,18.8272727 90.1568627,17.7909091 90.5019608,16.7545455 C91.4509804,13.8181818 93.5215686,12.1772727 96.627451,12.0909091 C97.4901961,12.0045455 98.2666667,12.0045455 99.1294118,12.0909091 C101.803922,12.2636364 103.615686,13.7318182 104.478431,16.2363636 C105.082353,18.05 105.341176,21.6772727 104.996078,23.75 C103.356863,23.75 101.717647,23.75 100.078431,23.75 C99.3882353,23.75 99.3019608,23.4045455 99.3019608,22.8863636 C99.3019608,21.5045455 99.3019608,20.1227273 99.2156863,18.7409091 C99.1294118,17.6181818 98.5254902,17.1 97.4901961,17.1 C96.454902,17.1 95.7647059,17.6181818 95.7647059,18.8272727 Z M3.79607843,5.78636364 C4.91764706,1.55454545 8.62745098,-0.345454545 13.027451,1.29545455 C13.027451,2.93636364 13.027451,4.57727273 13.027451,6.30454545 C12.6823529,6.30454545 12.3372549,6.21818182 12.0784314,6.21818182 C10.6117647,5.95909091 9.83529412,6.39090909 9.57647059,7.85909091 C9.31764706,9.24090909 9.31764706,10.7090909 9.23137255,12.2636364 C10.3529412,12.2636364 11.3019608,12.2636364 12.3372549,12.2636364 C12.3372549,14.0772727 12.3372549,15.8045455 12.3372549,17.6181818 C11.3882353,17.6181818 10.4392157,17.6181818 9.31764706,17.6181818 C9.31764706,26.8590909 9.31764706,35.9272727 9.31764706,44.9954545 C7.24705882,44.9954545 5.2627451,44.9954545 3.27843137,44.9954545 C3.27843137,36.0136364 3.27843137,26.9454545 3.27843137,17.7909091 C2.24313725,17.7909091 1.29411765,17.7909091 0.258823529,17.7909091 C0.258823529,15.9772727 0.258823529,14.25 0.258823529,12.35 C1.20784314,12.35 2.07058824,12.35 3.10588235,12.35 C3.19215686,10.7090909 3.27843137,9.15454545 3.45098039,7.6 C3.45098039,6.99545455 3.62352941,6.39090909 3.79607843,5.78636364 Z M76.6117647,26.5136364 C78.0784314,28.2409091 79.7176471,29.9681818 80.9254902,32.0409091 C82.5647059,34.6318182 82.5647059,37.5681818 81.6156863,40.5045455 C80.6666667,43.6136364 78.2509804,45.3409091 75.0588235,45.6 C71.8666667,45.8590909 68.9333333,44.3045455 67.5529412,41.5409091 C66.6901961,39.8136364 66.345098,37.9136364 66.4313725,35.8409091 C67.9843137,35.8409091 69.5372549,35.7545455 71.0901961,35.8409091 C71.2627451,35.8409091 71.6078431,36.2727273 71.6941176,36.6181818 C71.9529412,37.5681818 72.1254902,38.5181818 72.4705882,39.3818182 C72.9019608,40.4181818 73.6784314,40.9363636 74.8,40.7636364 C75.8352941,40.6772727 76.2666667,39.9 76.5254902,38.95 C76.9568627,37.1363636 76.8705882,35.4090909 75.6627451,33.9409091 C74.7137255,32.8181818 73.6784314,31.6954545 72.6431373,30.5727273 C71.4352941,29.1909091 70.1411765,27.9818182 69.1058824,26.6 C66.7764706,23.4045455 66.6901961,19.8636364 68.0705882,16.2363636 C69.0196078,13.6454545 71.0039216,12.35 73.6784314,12.0909091 C74.7137255,12.0045455 75.7490196,12.0045455 76.7843137,12.1772727 C79.8039216,12.6954545 81.5294118,14.7681818 81.9607843,17.8772727 C82.0470588,18.7409091 82.1333333,19.6045455 82.2196078,20.6409091 C80.4941176,20.6409091 79.027451,20.7272727 77.4745098,20.6409091 C77.2156863,20.6409091 76.8705882,20.2090909 76.7843137,19.95 C76.6117647,19.2590909 76.6980392,18.4818182 76.3529412,17.9636364 C76.0941176,17.4454545 75.3176471,16.9272727 74.8,16.9272727 C74.2823529,16.9272727 73.5921569,17.4454545 73.3333333,17.9636364 C72.5568627,19.6909091 72.4705882,21.5045455 73.6784314,23.1454545 C74.5411765,24.3545455 75.6627451,25.3909091 76.6117647,26.5136364 Z" id="Combined-Shape"></path> </g> </g> </g> </g></svg>
